<svg xmlns="http://www.w3.org/2000/svg" width="259.817" height="240.237" viewBox="0 0 259.817 240.237">
  <g id="Logo" transform="translate(-485 -264)">
    <path id="Rectangle-21" d="M49.717,63.195V208.266H194.788V63.195Zm-1.783-1.783H196.571V210.049H47.935Z" transform="translate(616.556 216.712) rotate(45)" fill="#2659e2"/>
    <path id="Rectangle-21-2" data-name="Rectangle-21" d="M49.717,63.195V208.266H194.788V63.195Zm-1.783-1.783H196.571V210.049H47.935Z" transform="matrix(0.259, 0.966, -0.966, 0.259, 706.49, 245.917)" fill="#2659e2"/>
    <path id="Rectangle-21-3" data-name="Rectangle-21" d="M49.717,63.195V208.266H194.788V63.195Zm-1.783-1.783H196.571V210.049H47.935Z" transform="matrix(0.966, 0.259, -0.259, 0.966, 524.068, 236.387)" fill="#2659e2"/>
    <path id="Triangle-3" d="M103.66,34.994l-74.2,159.141,175.175-15.4ZM207.874,180.242,26.542,196.181,103.347,31.448Z" transform="translate(447.654 323.601) rotate(-25)" fill="#2659e2"/>
    <path id="Triangle-3-2" data-name="Triangle-3" d="M124.984,41.251l-74.2,159.14,175.176-15.4ZM229.2,186.5,47.865,202.438,124.671,37.7Z" transform="matrix(0.819, 0.574, -0.574, 0.819, 578.696, 205.66)" fill="#2659e2"/>
    <path id="Path" d="M96.79,131.365l-22.025,83.1,33.271-56.392Zm-.384-5.507,13.62,32.353-40.3,68.3Z" transform="translate(484.773 263.403)" fill="#2659e2"/>
    <path id="Path-2" data-name="Path" d="M72.939,50.732l-3.12-5.523.053-.041,4.5,4.473,3.241,5.737Zm4.672,4.646,32.2,57.009L138.568,116Zm65.918,63.047L108.7,114.045,69.7,45Z" transform="translate(484.773 263.403)" fill="#2659e2"/>
    <path id="Path-3" data-name="Path" d="M171.219,50.582l3.223-5.463.062.026-1.625,6.132-3.348,5.675Zm-1.688,6.369L136.26,113.342l11.245,26.712Zm-21.641,88.61-13.621-32.353,40.3-68.3Z" transform="translate(484.773 263.403)" fill="#2659e2"/>
    <path id="Path-4" data-name="Path" d="M220.451,135.651l6.342.06.009.067-6.123,1.658-6.588-.062Zm-6.36,1.723-65.472-.618-17.51,23.1Zm-87.56,25.563,21.209-27.972,79.3.748Z" transform="translate(484.773 263.403)" fill="#2659e2"/>
    <path id="Path-5" data-name="Path" d="M166.723,216.175l-32.2-57.009-28.756-3.617ZM100.8,153.128l34.829,4.381,39,69.05Z" transform="translate(484.773 263.403)" fill="#2659e2"/>
    <path id="Path-6" data-name="Path" d="M30.168,134.145l65.472.617,17.511-23.094Zm87.56-25.564L96.519,136.553l-79.3-.748Z" transform="translate(484.773 263.403)" fill="#2659e2"/>
    <path id="Path-7" data-name="Path" d="M36.885,183.14,69.6,165.023V134Zm34.5-55.031v37.964L31.343,188.247Z" transform="translate(484.773 263.403)" fill="#2659e2"/>
    <path id="Path-8" data-name="Path" d="M38.433,85.776l32.048,19.273,26.864-15.51Zm64.907,2.36L70.462,107.118,31.24,83.531Z" transform="translate(484.773 263.403)" fill="#2659e2"/>
    <path id="Path-9" data-name="Path" d="M123.527,38.435l-.667,37.391,26.864,15.51Zm30.41,57.391L121.059,76.844l.816-45.761Z" transform="translate(484.773 263.403)" fill="#2659e2"/>
    <path id="Path-10" data-name="Path" d="M209.222,85.23l3.012-1.668.139.151-1.908,2.867-3.392,1.879Zm-2.149,3.228-32.715,18.118V137.6Zm-34.5,55.031V105.525l40.039-22.174Z" transform="translate(484.773 263.403)" fill="#2659e2"/>
    <path id="Path-11" data-name="Path" d="M209.394,186.069l2.951,1.775-.061.2-3.437-.22-3.323-2Zm-3.87-.247-32.047-19.273-26.864,15.51Zm-64.907-2.36,32.878-18.982,39.222,23.588Z" transform="translate(484.773 263.403)" fill="#2659e2"/>
    <path id="Path-12" data-name="Path" d="M91.448,178.655l-1.188-2.4.228-.213,2.319,1.338,1.427,2.883Zm28.982,54.508.667-37.39-26.864-15.51Zm-30.41-57.391L122.9,194.754l-.816,45.761Z" transform="translate(484.773 263.403)" fill="#2659e2"/>
  </g>
</svg>
