<svg style = "background: linear-gradient(90deg, #8E2DE2 0%, #4A00E0 50%, #2DACE2 100%);" width="100%" height="3606" viewBox="0 0 1920 3606" fill="none" xmlns="http://www.w3.org/2000/svg">
	<line x1="4.37114e-08" y1="7.5" x2="1920" y2="7.50017" stroke="white" stroke-opacity="0.2"/>
	<line x1="4.37114e-08" y1="207.5" x2="1920" y2="207.5" stroke="white" stroke-opacity="0.2"/>
	<line x1="4.37114e-08" y1="407.5" x2="1920" y2="407.5" stroke="white" stroke-opacity="0.2"/>
	<line x1="4.37114e-08" y1="656.5" x2="1920" y2="656.5" stroke="white" stroke-opacity="0.2"/>
	<line x1="192.5" y1="8" x2="192.5" y2="608" stroke="white" stroke-opacity="0.2"/>
	<line x1="384.5" y1="8" x2="384.5" y2="608" stroke="white" stroke-opacity="0.2"/>
	<line x1="384.5" y1="8" x2="384.5" y2="608" stroke="white" stroke-opacity="0.2"/>
	<line x1="576.5" y1="8" x2="576.5" y2="608" stroke="white" stroke-opacity="0.2"/>
	<line x1="768.5" y1="8" x2="768.5" y2="608" stroke="white" stroke-opacity="0.2"/>
	<line x1="960.5" y1="8" x2="960.5" y2="608" stroke="white" stroke-opacity="0.2"/>
	<line x1="1152.5" y1="8" x2="1152.5" y2="608" stroke="white" stroke-opacity="0.2"/>
	<line x1="1344.5" y1="8" x2="1344.5" y2="608" stroke="white" stroke-opacity="0.2"/>
	<line x1="1536.5" y1="8" x2="1536.5" y2="608" stroke="white" stroke-opacity="0.2"/>
	<line x1="1728.5" y1="8" x2="1728.5" y2="608" stroke="white" stroke-opacity="0.2"/>

	<circle cx="192.5" cy="7.5" r="7.5" fill="white" fill-opacity="0.2"/>
	<circle cx="192.5" cy="207.5" r="7.5" fill="white" fill-opacity="0.2"/>
	<circle cx="192.5" cy="407.5" r="7.5" fill="white" fill-opacity="0.2"/>
	<circle cx="192.5" cy="656.5" r="7.5" fill="white" fill-opacity="0.2"/>
	<circle cx="384.5" cy="7.5" r="7.5" fill="white" fill-opacity="0.2"/>
	<circle cx="384.5" cy="207.5" r="7.5" fill="white" fill-opacity="0.2"/>
	<circle cx="384.5" cy="407.5" r="7.5" fill="white" fill-opacity="0.2"/>
	<circle cx="384.5" cy="656.5" r="7.5" fill="white" fill-opacity="0.2"/>
	<circle cx="576.5" cy="7.5" r="7.5" fill="white" fill-opacity="0.2"/>
	<circle cx="576.5" cy="207.5" r="7.5" fill="white" fill-opacity="0.2"/>
	<circle cx="576.5" cy="407.5" r="7.5" fill="white" fill-opacity="0.2"/>
	<circle cx="576.5" cy="656.5" r="7.5" fill="white" fill-opacity="0.2"/>
	<circle cx="768.5" cy="7.5" r="7.5" fill="white" fill-opacity="0.2"/>
	<circle cx="768.5" cy="207.5" r="7.5" fill="white" fill-opacity="0.2"/>
	<circle cx="768.5" cy="407.5" r="7.5" fill="white" fill-opacity="0.2"/>
	<circle cx="768.5" cy="656.5" r="7.5" fill="white" fill-opacity="0.2"/>
	<circle cx="960.5" cy="7.5" r="7.5" fill="white" fill-opacity="0.2"/>
	<circle cx="960.5" cy="207.5" r="7.5" fill="white" fill-opacity="0.2"/>
	<circle cx="960.5" cy="407.5" r="7.5" fill="white" fill-opacity="0.2"/>
	<circle cx="960.5" cy="656.5" r="7.5" fill="white" fill-opacity="0.2"/>
	<circle cx="1152.5" cy="7.5" r="7.5" fill="white" fill-opacity="0.2"/>
	<circle cx="1152.5" cy="207.5" r="7.5" fill="white" fill-opacity="0.2"/>
	<circle cx="1152.5" cy="407.5" r="7.5" fill="white" fill-opacity="0.2"/>
	<circle cx="1152.5" cy="656.5" r="7.5" fill="white" fill-opacity="0.2"/>
	<circle cx="1344.5" cy="7.5" r="7.5" fill="white" fill-opacity="0.2"/>
	<circle cx="1344.5" cy="207.5" r="7.5" fill="white" fill-opacity="0.2"/>
	<circle cx="1344.5" cy="407.5" r="7.5" fill="white" fill-opacity="0.2"/>
	<circle cx="1344.5" cy="656.5" r="7.5" fill="white" fill-opacity="0.2"/>
	<circle cx="1536.5" cy="7.5" r="7.5" fill="white" fill-opacity="0.2"/>
	<circle cx="1536.5" cy="207.5" r="7.5" fill="white" fill-opacity="0.2"/>
	<circle cx="1536.5" cy="407.5" r="7.5" fill="white" fill-opacity="0.2"/>
	<circle cx="1536.5" cy="656.5" r="7.5" fill="white" fill-opacity="0.2"/>
	<circle cx="1728.5" cy="7.5" r="7.5" fill="white" fill-opacity="0.2"/>
	<circle cx="1728.5" cy="207.5" r="7.5" fill="white" fill-opacity="0.2"/>
	<circle cx="1728.5" cy="407.5" r="7.5" fill="white" fill-opacity="0.2"/>
	<circle cx="1728.5" cy="656.5" r="7.5" fill="white" fill-opacity="0.2"/>

	<line x1="4.37114e-08" y1="806.5" x2="1920" y2="806.5" stroke="white" stroke-opacity="0.2"/>
	<line x1="4.37114e-08" y1="1006.5" x2="1920" y2="1006.5" stroke="white" stroke-opacity="0.2"/>
	<line x1="4.37114e-08" y1="1206.5" x2="1920" y2="1206.5" stroke="white" stroke-opacity="0.2"/>
	<line x1="192.5" y1="607" x2="192.5" y2="1207" stroke="white" stroke-opacity="0.2"/>
	<line x1="384.5" y1="607" x2="384.5" y2="1207" stroke="white" stroke-opacity="0.2"/>
	<line x1="384.5" y1="607" x2="384.5" y2="1207" stroke="white" stroke-opacity="0.2"/>
	<line x1="576.5" y1="607" x2="576.5" y2="1207" stroke="white" stroke-opacity="0.2"/>
	<line x1="768.5" y1="607" x2="768.5" y2="1207" stroke="white" stroke-opacity="0.2"/>
	<line x1="960.5" y1="607" x2="960.5" y2="1207" stroke="white" stroke-opacity="0.2"/>
	<line x1="1152.5" y1="607" x2="1152.5" y2="1207" stroke="white" stroke-opacity="0.2"/>
	<line x1="1344.5" y1="607" x2="1344.5" y2="1207" stroke="white" stroke-opacity="0.2"/>
	<line x1="1536.5" y1="607" x2="1536.5" y2="1207" stroke="white" stroke-opacity="0.2"/>
	<line x1="1728.5" y1="607" x2="1728.5" y2="1207" stroke="white" stroke-opacity="0.2"/>

	<circle cx="192.5" cy="806.5" r="7.5" fill="white" fill-opacity="0.2"/>
	<circle cx="192.5" cy="1006.5" r="7.5" fill="white" fill-opacity="0.2"/>
	<circle cx="192.5" cy="1206.5" r="7.5" fill="white" fill-opacity="0.2"/>
	<circle cx="384.5" cy="806.5" r="7.5" fill="white" fill-opacity="0.2"/>
	<circle cx="384.5" cy="1006.5" r="7.5" fill="white" fill-opacity="0.2"/>
	<circle cx="384.5" cy="1206.5" r="7.5" fill="white" fill-opacity="0.2"/>
	<circle cx="576.5" cy="806.5" r="7.5" fill="white" fill-opacity="0.2"/>
	<circle cx="576.5" cy="1006.5" r="7.5" fill="white" fill-opacity="0.2"/>
	<circle cx="576.5" cy="1206.5" r="7.5" fill="white" fill-opacity="0.2"/>
	<circle cx="768.5" cy="806.5" r="7.5" fill="white" fill-opacity="0.2"/>
	<circle cx="768.5" cy="1006.5" r="7.5" fill="white" fill-opacity="0.2"/>
	<circle cx="768.5" cy="1206.5" r="7.5" fill="white" fill-opacity="0.2"/>
	<circle cx="960.5" cy="806.5" r="7.5" fill="white" fill-opacity="0.2"/>
	<circle cx="960.5" cy="1006.5" r="7.5" fill="white" fill-opacity="0.2"/>
	<circle cx="960.5" cy="1206.5" r="7.5" fill="white" fill-opacity="0.2"/>
	<circle cx="1152.5" cy="806.5" r="7.5" fill="white" fill-opacity="0.2"/>
	<circle cx="1152.5" cy="1006.5" r="7.5" fill="white" fill-opacity="0.2"/>
	<circle cx="1152.5" cy="1206.5" r="7.5" fill="white" fill-opacity="0.2"/>
	<circle cx="1344.5" cy="806.5" r="7.5" fill="white" fill-opacity="0.2"/>
	<circle cx="1344.5" cy="1006.5" r="7.5" fill="white" fill-opacity="0.2"/>
	<circle cx="1344.5" cy="1206.5" r="7.5" fill="white" fill-opacity="0.2"/>
	<circle cx="1536.5" cy="806.5" r="7.5" fill="white" fill-opacity="0.2"/>
	<circle cx="1536.5" cy="1006.5" r="7.5" fill="white" fill-opacity="0.2"/>
	<circle cx="1536.5" cy="1206.5" r="7.5" fill="white" fill-opacity="0.2"/>
	<circle cx="1728.5" cy="806.5" r="7.5" fill="white" fill-opacity="0.2"/>
	<circle cx="1728.5" cy="1006.5" r="7.5" fill="white" fill-opacity="0.2"/>
	<circle cx="1728.5" cy="1206.5" r="7.5" fill="white" fill-opacity="0.2"/>

	<line x1="4.37114e-08" y1="1406.5" x2="1920" y2="1406.5" stroke="white" stroke-opacity="0.2"/>
	<line x1="4.37114e-08" y1="1606.5" x2="1920" y2="1606.5" stroke="white" stroke-opacity="0.2"/>
	<line x1="4.37114e-08" y1="1806.5" x2="1920" y2="1806.5" stroke="white" stroke-opacity="0.2"/>
	<line x1="192.5" y1="1207" x2="192.5" y2="1807" stroke="white" stroke-opacity="0.2"/>
	<line x1="384.5" y1="1207" x2="384.5" y2="1807" stroke="white" stroke-opacity="0.2"/>
	<line x1="384.5" y1="1207" x2="384.5" y2="1807" stroke="white" stroke-opacity="0.2"/>
	<line x1="576.5" y1="1207" x2="576.5" y2="1807" stroke="white" stroke-opacity="0.2"/>
	<line x1="768.5" y1="1207" x2="768.5" y2="1807" stroke="white" stroke-opacity="0.2"/>
	<line x1="960.5" y1="1207" x2="960.5" y2="1807" stroke="white" stroke-opacity="0.2"/>
	<line x1="1152.5" y1="1207" x2="1152.5" y2="1807" stroke="white" stroke-opacity="0.2"/>
	<line x1="1344.5" y1="1207" x2="1344.5" y2="1807" stroke="white" stroke-opacity="0.2"/>
	<line x1="1536.5" y1="1207" x2="1536.5" y2="1807" stroke="white" stroke-opacity="0.2"/>
	<line x1="1728.5" y1="1207" x2="1728.5" y2="1807" stroke="white" stroke-opacity="0.2"/>

	<circle cx="192.5" cy="1406.5" r="7.5" fill="white" fill-opacity="0.2"/>
	<circle cx="192.5" cy="1606.5" r="7.5" fill="white" fill-opacity="0.2"/>
	<circle cx="192.5" cy="1806.5" r="7.5" fill="white" fill-opacity="0.2"/>
	<circle cx="384.5" cy="1406.5" r="7.5" fill="white" fill-opacity="0.2"/>
	<circle cx="384.5" cy="1606.5" r="7.5" fill="white" fill-opacity="0.2"/>
	<circle cx="384.5" cy="1806.5" r="7.5" fill="white" fill-opacity="0.2"/>
	<circle cx="576.5" cy="1406.5" r="7.5" fill="white" fill-opacity="0.2"/>
	<circle cx="576.5" cy="1606.5" r="7.5" fill="white" fill-opacity="0.2"/>
	<circle cx="576.5" cy="1806.5" r="7.5" fill="white" fill-opacity="0.2"/>
	<circle cx="768.5" cy="1406.5" r="7.5" fill="white" fill-opacity="0.2"/>
	<circle cx="768.5" cy="1606.5" r="7.5" fill="white" fill-opacity="0.2"/>
	<circle cx="768.5" cy="1806.5" r="7.5" fill="white" fill-opacity="0.2"/>
	<circle cx="960.5" cy="1406.5" r="7.5" fill="white" fill-opacity="0.2"/>
	<circle cx="960.5" cy="1606.5" r="7.5" fill="white" fill-opacity="0.2"/>
	<circle cx="960.5" cy="1806.5" r="7.5" fill="white" fill-opacity="0.2"/>
	<circle cx="1152.5" cy="1406.5" r="7.5" fill="white" fill-opacity="0.2"/>
	<circle cx="1152.5" cy="1606.5" r="7.5" fill="white" fill-opacity="0.2"/>
	<circle cx="1152.5" cy="1806.5" r="7.5" fill="white" fill-opacity="0.2"/>
	<circle cx="1344.5" cy="1406.5" r="7.5" fill="white" fill-opacity="0.2"/>
	<circle cx="1344.5" cy="1606.5" r="7.5" fill="white" fill-opacity="0.2"/>
	<circle cx="1344.5" cy="1806.5" r="7.5" fill="white" fill-opacity="0.2"/>
	<circle cx="1536.5" cy="1406.5" r="7.5" fill="white" fill-opacity="0.2"/>
	<circle cx="1536.5" cy="1606.5" r="7.5" fill="white" fill-opacity="0.2"/>
	<circle cx="1536.5" cy="1806.5" r="7.5" fill="white" fill-opacity="0.2"/>
	<circle cx="1728.5" cy="1406.5" r="7.5" fill="white" fill-opacity="0.2"/>
	<circle cx="1728.5" cy="1606.5" r="7.5" fill="white" fill-opacity="0.2"/>
	<circle cx="1728.5" cy="1806.5" r="7.5" fill="white" fill-opacity="0.2"/>

	<line x1="4.37114e-08" y1="2005.5" x2="1920" y2="2005.5" stroke="white" stroke-opacity="0.2"/>
	<line x1="4.37114e-08" y1="2205.5" x2="1920" y2="2205.5" stroke="white" stroke-opacity="0.2"/>
	<line x1="4.37114e-08" y1="2405.5" x2="1920" y2="2405.5" stroke="white" stroke-opacity="0.2"/>
	<line x1="192.5" y1="1806" x2="192.5" y2="2406" stroke="white" stroke-opacity="0.2"/>
	<line x1="384.5" y1="1806" x2="384.5" y2="2406" stroke="white" stroke-opacity="0.2"/>
	<line x1="384.5" y1="1806" x2="384.5" y2="2406" stroke="white" stroke-opacity="0.2"/>
	<line x1="576.5" y1="1806" x2="576.5" y2="2406" stroke="white" stroke-opacity="0.2"/>
	<line x1="768.5" y1="1806" x2="768.5" y2="2406" stroke="white" stroke-opacity="0.2"/>
	<line x1="960.5" y1="1806" x2="960.5" y2="2406" stroke="white" stroke-opacity="0.2"/>
	<line x1="1152.5" y1="1806" x2="1152.5" y2="2406" stroke="white" stroke-opacity="0.2"/>
	<line x1="1344.5" y1="1806" x2="1344.5" y2="2406" stroke="white" stroke-opacity="0.2"/>
	<line x1="1536.5" y1="1806" x2="1536.5" y2="2406" stroke="white" stroke-opacity="0.2"/>
	<line x1="1728.5" y1="1806" x2="1728.5" y2="2406" stroke="white" stroke-opacity="0.2"/>

	<circle cx="192.5" cy="2005.5" r="7.5" fill="white" fill-opacity="0.2"/>
	<circle cx="192.5" cy="2205.5" r="7.5" fill="white" fill-opacity="0.2"/>
	<circle cx="192.5" cy="2405.5" r="7.5" fill="white" fill-opacity="0.2"/>
	<circle cx="384.5" cy="2005.5" r="7.5" fill="white" fill-opacity="0.2"/>
	<circle cx="384.5" cy="2205.5" r="7.5" fill="white" fill-opacity="0.2"/>
	<circle cx="384.5" cy="2405.5" r="7.5" fill="white" fill-opacity="0.2"/>
	<circle cx="576.5" cy="2005.5" r="7.5" fill="white" fill-opacity="0.2"/>
	<circle cx="576.5" cy="2205.5" r="7.5" fill="white" fill-opacity="0.2"/>
	<circle cx="576.5" cy="2405.5" r="7.5" fill="white" fill-opacity="0.2"/>
	<circle cx="768.5" cy="2005.5" r="7.5" fill="white" fill-opacity="0.2"/>
	<circle cx="768.5" cy="2205.5" r="7.5" fill="white" fill-opacity="0.2"/>
	<circle cx="768.5" cy="2405.5" r="7.5" fill="white" fill-opacity="0.2"/>
	<circle cx="960.5" cy="2005.5" r="7.5" fill="white" fill-opacity="0.2"/>
	<circle cx="960.5" cy="2205.5" r="7.5" fill="white" fill-opacity="0.2"/>
	<circle cx="960.5" cy="2405.5" r="7.5" fill="white" fill-opacity="0.2"/>
	<circle cx="1152.5" cy="2005.5" r="7.5" fill="white" fill-opacity="0.2"/>
	<circle cx="1152.5" cy="2205.5" r="7.5" fill="white" fill-opacity="0.2"/>
	<circle cx="1152.5" cy="2405.5" r="7.5" fill="white" fill-opacity="0.2"/>
	<circle cx="1344.5" cy="2005.5" r="7.5" fill="white" fill-opacity="0.2"/>
	<circle cx="1344.5" cy="2205.5" r="7.5" fill="white" fill-opacity="0.2"/>
	<circle cx="1344.5" cy="2405.5" r="7.5" fill="white" fill-opacity="0.2"/>
	<circle cx="1536.5" cy="2005.5" r="7.5" fill="white" fill-opacity="0.2"/>
	<circle cx="1536.5" cy="2205.5" r="7.5" fill="white" fill-opacity="0.2"/>
	<circle cx="1536.5" cy="2405.5" r="7.5" fill="white" fill-opacity="0.2"/>
	<circle cx="1728.5" cy="2005.5" r="7.5" fill="white" fill-opacity="0.2"/>
	<circle cx="1728.5" cy="2205.5" r="7.5" fill="white" fill-opacity="0.2"/>
	<circle cx="1728.5" cy="2405.5" r="7.5" fill="white" fill-opacity="0.2"/>

	<line x1="4.37114e-08" y1="2605.5" x2="1920" y2="2605.5" stroke="white" stroke-opacity="0.2"/>
	<line x1="4.37114e-08" y1="2605.5" x2="1920" y2="2605.5" stroke="white" stroke-opacity="0.2"/>
	<line x1="4.37114e-08" y1="2805.5" x2="1920" y2="2805.5" stroke="white" stroke-opacity="0.2"/>
	<line x1="4.37114e-08" y1="3005.5" x2="1920" y2="3005.5" stroke="white" stroke-opacity="0.2"/>
	<line x1="192.5" y1="2406" x2="192.5" y2="3006" stroke="white" stroke-opacity="0.2"/>
	<line x1="384.5" y1="2406" x2="384.5" y2="3006" stroke="white" stroke-opacity="0.2"/>
	<line x1="384.5" y1="2406" x2="384.5" y2="3006" stroke="white" stroke-opacity="0.2"/>
	<line x1="576.5" y1="2406" x2="576.5" y2="3006" stroke="white" stroke-opacity="0.2"/>
	<line x1="768.5" y1="2406" x2="768.5" y2="3006" stroke="white" stroke-opacity="0.2"/>
	<line x1="960.5" y1="2406" x2="960.5" y2="3006" stroke="white" stroke-opacity="0.2"/>
	<line x1="1152.5" y1="2406" x2="1152.5" y2="3006" stroke="white" stroke-opacity="0.2"/>
	<line x1="1344.5" y1="2406" x2="1344.5" y2="3006" stroke="white" stroke-opacity="0.2"/>
	<line x1="1536.5" y1="2406" x2="1536.5" y2="3006" stroke="white" stroke-opacity="0.2"/>
	<line x1="1728.5" y1="2406" x2="1728.5" y2="3006" stroke="white" stroke-opacity="0.2"/>

	<circle cx="192.5" cy="2605.5" r="7.5" fill="white" fill-opacity="0.2"/>
	<circle cx="192.5" cy="2805.5" r="7.5" fill="white" fill-opacity="0.2"/>
	<circle cx="192.5" cy="3005.5" r="7.5" fill="white" fill-opacity="0.2"/>
	<circle cx="384.5" cy="2605.5" r="7.5" fill="white" fill-opacity="0.2"/>
	<circle cx="384.5" cy="2805.5" r="7.5" fill="white" fill-opacity="0.2"/>
	<circle cx="384.5" cy="3005.5" r="7.5" fill="white" fill-opacity="0.2"/>
	<circle cx="576.5" cy="2605.5" r="7.5" fill="white" fill-opacity="0.2"/>
	<circle cx="576.5" cy="2805.5" r="7.5" fill="white" fill-opacity="0.2"/>
	<circle cx="576.5" cy="3005.5" r="7.5" fill="white" fill-opacity="0.2"/>
	<circle cx="768.5" cy="2605.5" r="7.5" fill="white" fill-opacity="0.2"/>
	<circle cx="768.5" cy="2805.5" r="7.5" fill="white" fill-opacity="0.2"/>
	<circle cx="768.5" cy="3005.5" r="7.5" fill="white" fill-opacity="0.2"/>
	<circle cx="960.5" cy="2605.5" r="7.5" fill="white" fill-opacity="0.2"/>
	<circle cx="960.5" cy="2805.5" r="7.5" fill="white" fill-opacity="0.2"/>
	<circle cx="960.5" cy="3005.5" r="7.5" fill="white" fill-opacity="0.2"/>
	<circle cx="1152.5" cy="2605.5" r="7.5" fill="white" fill-opacity="0.2"/>
	<circle cx="1152.5" cy="2805.5" r="7.5" fill="white" fill-opacity="0.2"/>
	<circle cx="1152.5" cy="3005.5" r="7.5" fill="white" fill-opacity="0.2"/>
	<circle cx="1344.5" cy="2605.5" r="7.5" fill="white" fill-opacity="0.2"/>
	<circle cx="1344.5" cy="2805.5" r="7.5" fill="white" fill-opacity="0.2"/>
	<circle cx="1344.5" cy="3005.5" r="7.5" fill="white" fill-opacity="0.2"/>
	<circle cx="1536.5" cy="2605.5" r="7.5" fill="white" fill-opacity="0.2"/>
	<circle cx="1536.5" cy="2805.5" r="7.5" fill="white" fill-opacity="0.2"/>
	<circle cx="1536.5" cy="3005.5" r="7.5" fill="white" fill-opacity="0.2"/>
	<circle cx="1728.5" cy="2605.5" r="7.5" fill="white" fill-opacity="0.2"/>
	<circle cx="1728.5" cy="2805.5" r="7.5" fill="white" fill-opacity="0.2"/>
	<circle cx="1728.5" cy="3005.5" r="7.5" fill="white" fill-opacity="0.2"/>
	
	<line x1="4.37114e-08" y1="2405.5" x2="1920" y2="2405.5" stroke="white" stroke-opacity="0.2"/>
	<line x1="192.5" y1="1806" x2="192.5" y2="2406" stroke="white" stroke-opacity="0.2"/>
	<line x1="384.5" y1="1806" x2="384.5" y2="2406" stroke="white" stroke-opacity="0.2"/>
	<line x1="384.5" y1="1806" x2="384.5" y2="2406" stroke="white" stroke-opacity="0.2"/>
	<line x1="576.5" y1="1806" x2="576.5" y2="2406" stroke="white" stroke-opacity="0.2"/>
	<line x1="768.5" y1="1806" x2="768.5" y2="2406" stroke="white" stroke-opacity="0.2"/>
	<line x1="960.5" y1="1806" x2="960.5" y2="2406" stroke="white" stroke-opacity="0.2"/>
	<line x1="1152.5" y1="1806" x2="1152.5" y2="2406" stroke="white" stroke-opacity="0.2"/>
	<line x1="1344.5" y1="1806" x2="1344.5" y2="2406" stroke="white" stroke-opacity="0.2"/>
	<line x1="1536.5" y1="1806" x2="1536.5" y2="2406" stroke="white" stroke-opacity="0.2"/>
	<line x1="1728.5" y1="1806" x2="1728.5" y2="2406" stroke="white" stroke-opacity="0.2"/>
	
	<circle cx="192.5" cy="2405.5" r="7.5" fill="white" fill-opacity="0.2"/>
	<circle cx="384.5" cy="2405.5" r="7.5" fill="white" fill-opacity="0.2"/>
	<circle cx="576.5" cy="2405.5" r="7.5" fill="white" fill-opacity="0.2"/>
	<circle cx="768.5" cy="2405.5" r="7.5" fill="white" fill-opacity="0.2"/>
	<circle cx="960.5" cy="2405.5" r="7.5" fill="white" fill-opacity="0.2"/>
	<circle cx="1152.5" cy="2405.5" r="7.5" fill="white" fill-opacity="0.2"/>
	<circle cx="1344.5" cy="2405.5" r="7.5" fill="white" fill-opacity="0.2"/>
	<circle cx="1536.5" cy="2405.5" r="7.5" fill="white" fill-opacity="0.2"/>
	<circle cx="1728.5" cy="2405.5" r="7.5" fill="white" fill-opacity="0.2"/>
	
	<line x1="4.37114e-08" y1="2605.5" x2="1920" y2="2605.5" stroke="white" stroke-opacity="0.2"/>
	<line x1="4.37114e-08" y1="2605.5" x2="1920" y2="2605.5" stroke="white" stroke-opacity="0.2"/>
	<line x1="4.37114e-08" y1="2805.5" x2="1920" y2="2805.5" stroke="white" stroke-opacity="0.2"/>
	<line x1="4.37114e-08" y1="3005.5" x2="1920" y2="3005.5" stroke="white" stroke-opacity="0.2"/>
	<line x1="192.5" y1="2406" x2="192.5" y2="3006" stroke="white" stroke-opacity="0.2"/>
	<line x1="384.5" y1="2406" x2="384.5" y2="3006" stroke="white" stroke-opacity="0.2"/>
	<line x1="384.5" y1="2406" x2="384.5" y2="3006" stroke="white" stroke-opacity="0.2"/>
	<line x1="576.5" y1="2406" x2="576.5" y2="3006" stroke="white" stroke-opacity="0.2"/>
	<line x1="768.5" y1="2406" x2="768.5" y2="3006" stroke="white" stroke-opacity="0.2"/>
	<line x1="960.5" y1="2406" x2="960.5" y2="3006" stroke="white" stroke-opacity="0.2"/>
	<line x1="1152.5" y1="2406" x2="1152.5" y2="3006" stroke="white" stroke-opacity="0.2"/>
	<line x1="1344.5" y1="2406" x2="1344.5" y2="3006" stroke="white" stroke-opacity="0.2"/>
	<line x1="1536.5" y1="2406" x2="1536.5" y2="3006" stroke="white" stroke-opacity="0.2"/>
	<line x1="1728.5" y1="2406" x2="1728.5" y2="3006" stroke="white" stroke-opacity="0.2"/>
	
	<circle cx="192.5" cy="2605.5" r="7.5" fill="white" fill-opacity="0.2"/>
	<circle cx="192.5" cy="2805.5" r="7.5" fill="white" fill-opacity="0.2"/>
	<circle cx="192.5" cy="3005.5" r="7.5" fill="white" fill-opacity="0.2"/>
	<circle cx="384.5" cy="2605.5" r="7.5" fill="white" fill-opacity="0.2"/>
	<circle cx="384.5" cy="2805.5" r="7.5" fill="white" fill-opacity="0.2"/>
	<circle cx="384.5" cy="3005.5" r="7.5" fill="white" fill-opacity="0.2"/>
	<circle cx="576.5" cy="2605.5" r="7.5" fill="white" fill-opacity="0.2"/>
	<circle cx="576.5" cy="2805.5" r="7.5" fill="white" fill-opacity="0.2"/>
	<circle cx="576.5" cy="3005.5" r="7.5" fill="white" fill-opacity="0.2"/>
	<circle cx="768.5" cy="2605.5" r="7.5" fill="white" fill-opacity="0.2"/>
	<circle cx="768.5" cy="2805.5" r="7.5" fill="white" fill-opacity="0.2"/>
	<circle cx="768.5" cy="3005.5" r="7.5" fill="white" fill-opacity="0.2"/>
	<circle cx="960.5" cy="2605.5" r="7.5" fill="white" fill-opacity="0.2"/>
	<circle cx="960.5" cy="2805.5" r="7.5" fill="white" fill-opacity="0.2"/>
	<circle cx="960.5" cy="3005.5" r="7.5" fill="white" fill-opacity="0.2"/>
	<circle cx="1152.5" cy="2605.5" r="7.5" fill="white" fill-opacity="0.2"/>
	<circle cx="1152.5" cy="2805.5" r="7.5" fill="white" fill-opacity="0.2"/>
	<circle cx="1152.5" cy="3005.5" r="7.5" fill="white" fill-opacity="0.2"/>
	<circle cx="1344.5" cy="2605.5" r="7.5" fill="white" fill-opacity="0.2"/>
	<circle cx="1344.5" cy="2805.5" r="7.5" fill="white" fill-opacity="0.2"/>
	<circle cx="1344.5" cy="3005.5" r="7.5" fill="white" fill-opacity="0.2"/>
	<circle cx="1536.5" cy="2605.5" r="7.5" fill="white" fill-opacity="0.2"/>
	<circle cx="1536.5" cy="2805.5" r="7.5" fill="white" fill-opacity="0.2"/>
	<circle cx="1536.5" cy="3005.5" r="7.5" fill="white" fill-opacity="0.2"/>
	<circle cx="1728.5" cy="2605.5" r="7.5" fill="white" fill-opacity="0.2"/>
	<circle cx="1728.5" cy="2805.5" r="7.5" fill="white" fill-opacity="0.2"/>
	<circle cx="1728.5" cy="3005.5" r="7.5" fill="white" fill-opacity="0.2"/>
	
	<line x1="4.37114e-08" y1="3198.5" x2="1920" y2="3198.5" stroke="white" stroke-opacity="0.2"/>
	<line x1="4.37114e-08" y1="3198.5" x2="1920" y2="3198.5" stroke="white" stroke-opacity="0.2"/>
	<line x1="4.37114e-08" y1="3398.5" x2="1920" y2="3398.5" stroke="white" stroke-opacity="0.2"/>
	<line x1="4.37114e-08" y1="3598.5" x2="1920" y2="3598.5" stroke="white" stroke-opacity="0.2"/>
	<line x1="192.5" y1="2999" x2="192.5" y2="3599" stroke="white" stroke-opacity="0.2"/>
	<line x1="384.5" y1="2999" x2="384.5" y2="3599" stroke="white" stroke-opacity="0.2"/>
	<line x1="384.5" y1="2999" x2="384.5" y2="3599" stroke="white" stroke-opacity="0.2"/>
	<line x1="576.5" y1="2999" x2="576.5" y2="3599" stroke="white" stroke-opacity="0.2"/>
	<line x1="768.5" y1="2999" x2="768.5" y2="3599" stroke="white" stroke-opacity="0.2"/>
	<line x1="960.5" y1="2999" x2="960.5" y2="3599" stroke="white" stroke-opacity="0.2"/>
	<line x1="1152.5" y1="2999" x2="1152.5" y2="3599" stroke="white" stroke-opacity="0.2"/>
	<line x1="1344.5" y1="2999" x2="1344.5" y2="3599" stroke="white" stroke-opacity="0.2"/>
	<line x1="1536.5" y1="2999" x2="1536.5" y2="3599" stroke="white" stroke-opacity="0.2"/>
	<line x1="1728.5" y1="2999" x2="1728.5" y2="3599" stroke="white" stroke-opacity="0.2"/>
	
	<circle cx="192.5" cy="3198.5" r="7.5" fill="white" fill-opacity="0.2"/>
	<circle cx="192.5" cy="3398.5" r="7.5" fill="white" fill-opacity="0.2"/>
	<circle cx="192.5" cy="3598.5" r="7.5" fill="white" fill-opacity="0.2"/>
	<circle cx="384.5" cy="3198.5" r="7.5" fill="white" fill-opacity="0.2"/>
	<circle cx="384.5" cy="3398.5" r="7.5" fill="white" fill-opacity="0.2"/>
	<circle cx="384.5" cy="3598.5" r="7.5" fill="white" fill-opacity="0.2"/>
	<circle cx="576.5" cy="3198.5" r="7.5" fill="white" fill-opacity="0.2"/>
	<circle cx="576.5" cy="3398.5" r="7.5" fill="white" fill-opacity="0.2"/>
	<circle cx="576.5" cy="3598.5" r="7.5" fill="white" fill-opacity="0.2"/>
	<circle cx="768.5" cy="3198.5" r="7.5" fill="white" fill-opacity="0.2"/>
	<circle cx="768.5" cy="3398.5" r="7.5" fill="white" fill-opacity="0.2"/>
	<circle cx="768.5" cy="3598.5" r="7.5" fill="white" fill-opacity="0.2"/>
	<circle cx="960.5" cy="3198.5" r="7.5" fill="white" fill-opacity="0.2"/>
	<circle cx="960.5" cy="3398.5" r="7.5" fill="white" fill-opacity="0.2"/>
	<circle cx="960.5" cy="3598.5" r="7.5" fill="white" fill-opacity="0.2"/>
	<circle cx="1152.5" cy="3198.5" r="7.5" fill="white" fill-opacity="0.2"/>
	<circle cx="1152.5" cy="3398.5" r="7.5" fill="white" fill-opacity="0.2"/>
	<circle cx="1152.5" cy="3598.5" r="7.5" fill="white" fill-opacity="0.2"/>
	<circle cx="1344.5" cy="3198.5" r="7.5" fill="white" fill-opacity="0.2"/>
	<circle cx="1344.5" cy="3398.5" r="7.5" fill="white" fill-opacity="0.2"/>
	<circle cx="1344.5" cy="3598.5" r="7.5" fill="white" fill-opacity="0.2"/>
	<circle cx="1536.5" cy="3198.5" r="7.5" fill="white" fill-opacity="0.2"/>
	<circle cx="1536.5" cy="3398.5" r="7.5" fill="white" fill-opacity="0.2"/>
	<circle cx="1536.5" cy="3598.5" r="7.5" fill="white" fill-opacity="0.2"/>
	<circle cx="1728.5" cy="3198.5" r="7.5" fill="white" fill-opacity="0.2"/>
	<circle cx="1728.5" cy="3398.5" r="7.5" fill="white" fill-opacity="0.2"/>
	<circle cx="1728.5" cy="3598.5" r="7.5" fill="white" fill-opacity="0.2"/>
	
	<line x1="4.37114e-08" y1="3198.5" x2="1920" y2="3198.5" stroke="white" stroke-opacity="0.2"/>
	<line x1="4.37114e-08" y1="3198.5" x2="1920" y2="3198.5" stroke="white" stroke-opacity="0.2"/>
	<line x1="4.37114e-08" y1="3398.5" x2="1920" y2="3398.5" stroke="white" stroke-opacity="0.2"/>
	<line x1="4.37114e-08" y1="3598.5" x2="1920" y2="3598.5" stroke="white" stroke-opacity="0.2"/>
	<line x1="192.5" y1="2999" x2="192.5" y2="3599" stroke="white" stroke-opacity="0.2"/>
	<line x1="7.5" y1="8" x2="7.50003" y2="608" stroke="white" stroke-opacity="0.2"/>
	<line x1="7.5" y1="607" x2="7.50003" y2="1207" stroke="white" stroke-opacity="0.2"/>
	<line x1="7.5" y1="1207" x2="7.50003" y2="1807" stroke="white" stroke-opacity="0.2"/>
	<line x1="7.5" y1="1806" x2="7.50003" y2="2406" stroke="white" stroke-opacity="0.2"/>
	<line x1="7.5" y1="2406" x2="7.50003" y2="3006" stroke="white" stroke-opacity="0.2"/>
	<line x1="7.5" y1="2999" x2="7.50003" y2="3599" stroke="white" stroke-opacity="0.2"/>
	<line x1="384.5" y1="2999" x2="384.5" y2="3599" stroke="white" stroke-opacity="0.2"/>
	<line x1="384.5" y1="2999" x2="384.5" y2="3599" stroke="white" stroke-opacity="0.2"/>
	<line x1="576.5" y1="2999" x2="576.5" y2="3599" stroke="white" stroke-opacity="0.2"/>
	<line x1="768.5" y1="2999" x2="768.5" y2="3599" stroke="white" stroke-opacity="0.2"/>
	<line x1="960.5" y1="2999" x2="960.5" y2="3599" stroke="white" stroke-opacity="0.2"/>
	<line x1="1152.5" y1="2999" x2="1152.5" y2="3599" stroke="white" stroke-opacity="0.2"/>
	<line x1="1344.5" y1="2999" x2="1344.5" y2="3599" stroke="white" stroke-opacity="0.2"/>
	<line x1="1536.5" y1="2999" x2="1536.5" y2="3599" stroke="white" stroke-opacity="0.2"/>
	<line x1="1728.5" y1="2999" x2="1728.5" y2="3599" stroke="white" stroke-opacity="0.2"/>

	<circle cx="192.5" cy="3198.5" r="7.5" fill="white" fill-opacity="0.2"/>
	<circle cx="192.5" cy="3398.5" r="7.5" fill="white" fill-opacity="0.2"/>
	<circle cx="192.5" cy="3598.5" r="7.5" fill="white" fill-opacity="0.2"/>
	<circle cx="7.5" cy="7.5" r="7.5" fill="white" fill-opacity="0.2"/>
	<circle cx="7.5" cy="207.5" r="7.5" fill="white" fill-opacity="0.2"/>
	<circle cx="7.5" cy="407.5" r="7.5" fill="white" fill-opacity="0.2"/>
	<circle cx="7.5" cy="656.5" r="7.5" fill="white" fill-opacity="0.2"/>
	<circle cx="7.5" cy="806.5" r="7.5" fill="white" fill-opacity="0.2"/>
	<circle cx="7.5" cy="1006.5" r="7.5" fill="white" fill-opacity="0.2"/>
	<circle cx="7.5" cy="1206.5" r="7.5" fill="white" fill-opacity="0.2"/>
	<circle cx="7.5" cy="1406.5" r="7.5" fill="white" fill-opacity="0.2"/>
	<circle cx="7.5" cy="1606.5" r="7.5" fill="white" fill-opacity="0.2"/>
	<circle cx="7.5" cy="1806.5" r="7.5" fill="white" fill-opacity="0.2"/>
	<circle cx="7.5" cy="2005.5" r="7.5" fill="white" fill-opacity="0.2"/>
	<circle cx="7.5" cy="2205.5" r="7.5" fill="white" fill-opacity="0.2"/>
	<circle cx="7.5" cy="2405.5" r="7.5" fill="white" fill-opacity="0.2"/>
	<circle cx="7.5" cy="2605.5" r="7.5" fill="white" fill-opacity="0.2"/>
	<circle cx="7.5" cy="2805.5" r="7.5" fill="white" fill-opacity="0.2"/>
	<circle cx="7.5" cy="3005.5" r="7.5" fill="white" fill-opacity="0.2"/>
	<circle cx="7.5" cy="3198.5" r="7.5" fill="white" fill-opacity="0.2"/>
	<circle cx="7.5" cy="3398.5" r="7.5" fill="white" fill-opacity="0.2"/>
	<circle cx="7.5" cy="3598.5" r="7.5" fill="white" fill-opacity="0.2"/>
	<circle cx="384.5" cy="3198.5" r="7.5" fill="white" fill-opacity="0.2"/>
	<circle cx="384.5" cy="3398.5" r="7.5" fill="white" fill-opacity="0.2"/>
	<circle cx="384.5" cy="3598.5" r="7.5" fill="white" fill-opacity="0.2"/>
	<circle cx="576.5" cy="3198.5" r="7.5" fill="white" fill-opacity="0.2"/>
	<circle cx="576.5" cy="3398.5" r="7.5" fill="white" fill-opacity="0.2"/>
	<circle cx="576.5" cy="3598.5" r="7.5" fill="white" fill-opacity="0.2"/>
	<circle cx="768.5" cy="3198.5" r="7.5" fill="white" fill-opacity="0.2"/>
	<circle cx="768.5" cy="3398.5" r="7.5" fill="white" fill-opacity="0.2"/>
	<circle cx="768.5" cy="3598.5" r="7.5" fill="white" fill-opacity="0.2"/>
	<circle cx="960.5" cy="3198.5" r="7.5" fill="white" fill-opacity="0.2"/>
	<circle cx="960.5" cy="3398.5" r="7.5" fill="white" fill-opacity="0.2"/>
	<circle cx="960.5" cy="3598.5" r="7.5" fill="white" fill-opacity="0.2"/>
	<circle cx="1152.5" cy="3198.5" r="7.5" fill="white" fill-opacity="0.2"/>
	<circle cx="1152.5" cy="3398.5" r="7.5" fill="white" fill-opacity="0.2"/>
	<circle cx="1152.5" cy="3598.5" r="7.5" fill="white" fill-opacity="0.2"/>
	<circle cx="1344.5" cy="3198.5" r="7.5" fill="white" fill-opacity="0.2"/>
	<circle cx="1344.5" cy="3398.5" r="7.5" fill="white" fill-opacity="0.2"/>
	<circle cx="1344.5" cy="3598.5" r="7.5" fill="white" fill-opacity="0.2"/>
	<circle cx="1536.5" cy="3198.5" r="7.5" fill="white" fill-opacity="0.2"/>
	<circle cx="1536.5" cy="3398.5" r="7.5" fill="white" fill-opacity="0.2"/>
	<circle cx="1536.5" cy="3598.5" r="7.5" fill="white" fill-opacity="0.2"/>
	<circle cx="1728.5" cy="3198.5" r="7.5" fill="white" fill-opacity="0.2"/>
	<circle cx="1728.5" cy="3398.5" r="7.5" fill="white" fill-opacity="0.2"/>
	<circle cx="1728.5" cy="3598.5" r="7.5" fill="white" fill-opacity="0.2"/>
</svg>
