<svg width="190" height="190" viewBox="0 0 190 190" fill="none" xmlns="http://www.w3.org/2000/svg">
<path d="M95.1009 4.83637C107.291 4.83637 119.123 7.22546 130.241 11.9284C141.001 16.4808 150.652 22.9897 158.948 31.2856C167.244 39.5816 173.753 49.232 178.305 59.9923C183.008 71.1288 185.397 82.9425 185.397 95.1325C185.397 107.322 183.008 119.155 178.305 130.273C173.753 141.033 167.244 150.683 158.948 158.979C150.652 167.275 141.001 173.784 130.241 178.337C119.105 183.04 107.291 185.429 95.1009 185.429C82.9109 185.429 71.0783 183.04 59.9606 178.337C49.2003 173.784 39.5499 167.275 31.2539 158.979C22.958 150.683 16.4491 141.033 11.8967 130.273C7.19378 119.155 4.8047 107.322 4.8047 95.1325C4.8047 82.9425 7.19378 71.11 11.8967 59.9923C16.4491 49.232 22.958 39.5816 31.2539 31.2856C39.5499 22.9897 49.2003 16.4808 59.9606 11.9284C71.0783 7.22546 82.9109 4.83637 95.1009 4.83637ZM95.1009 1.07404C43.1618 1.07404 1.04236 43.1934 1.04236 95.1325C1.04236 147.072 43.1618 189.191 95.1009 189.191C147.04 189.191 189.159 147.072 189.159 95.1325C189.159 43.1934 147.04 1.07404 95.1009 1.07404Z" fill="white" stroke="white" stroke-width="2.25068"/>
<path d="M31.6302 132.097L62.1616 96.7314" stroke="white" stroke-width="3.00091" stroke-miterlimit="10"/>
<path d="M77.8882 109.58L61.3151 97.0512" stroke="white" stroke-width="3.00091" stroke-miterlimit="10"/>
<path d="M90.0217 103.334L77.2862 109.599" stroke="white" stroke-width="3.00091" stroke-miterlimit="10"/>
<path d="M105.598 114.904L89.4197 103.372" stroke="white" stroke-width="3.00091" stroke-miterlimit="10"/>
<path d="M121.945 92.5552L105.372 113.982" stroke="white" stroke-width="3.00091" stroke-miterlimit="10"/>
<path d="M132.799 102.62L121.08 92.7246" stroke="white" stroke-width="3.00091" stroke-miterlimit="10"/>
<path d="M158.59 68.1566L132.724 101.717" stroke="white" stroke-width="3.00091" stroke-miterlimit="10"/>
<path d="M31.6302 132.511V42.5537" stroke="white" stroke-width="3.00091" stroke-miterlimit="10"/>
<path d="M31.3292 132.304H168.278" stroke="white" stroke-width="3.00091" stroke-miterlimit="10"/>
</svg>
