<svg width="88" height="88" viewBox="0 0 88 88" fill="none" xmlns="http://www.w3.org/2000/svg">
<path d="M43.9918 13.7627C39.6869 18.6335 31.077 21.1663 25.9893 17.2697C15.0312 34.0253 23.2498 58.5741 44.3832 73.9659C62.1901 60.9121 73.7352 35.1943 64.1469 16.88C56.711 21.1663 49.8622 20.387 43.9918 13.7627Z" stroke="white" stroke-width="2.38281" stroke-miterlimit="10" stroke-linecap="round" stroke-linejoin="round"/>
<path d="M57.4939 36.3632C52.6019 41.234 47.5143 46.2996 42.2309 51.5601C39.4914 48.8324 36.9475 46.2996 34.4037 43.7668" stroke="white" stroke-width="2.38281" stroke-miterlimit="10" stroke-linecap="round" stroke-linejoin="round"/>
<path d="M44 2.2302C49.6405 2.2302 55.1138 3.33601 60.2619 5.51045C65.2334 7.61056 69.7031 10.6306 73.5409 14.4591C77.3787 18.2876 80.3801 22.7666 82.4895 27.7381C84.664 32.8862 85.7698 38.3595 85.7698 44C85.7698 49.6405 84.664 55.1138 82.4895 60.2619C80.3801 65.2334 77.3694 69.7031 73.5316 73.5316C69.6938 77.3601 65.2334 80.3801 60.2619 82.4895C55.1138 84.664 49.6405 85.7698 44 85.7698C38.3595 85.7698 32.8862 84.664 27.7381 82.4895C22.7666 80.3801 18.2969 77.3694 14.4684 73.5316C10.6399 69.6938 7.61985 65.2334 5.51045 60.2619C3.33601 55.1138 2.2302 49.6405 2.2302 44C2.2302 38.3595 3.33601 32.8862 5.51045 27.7381C7.61056 22.7666 10.6306 18.2969 14.4591 14.4591C18.2876 10.6213 22.7666 7.61985 27.7381 5.51045C32.8862 3.33601 38.3595 2.2302 44 2.2302ZM44 0C19.7001 0 0 19.7001 0 44C0 68.2999 19.7001 88 44 88C68.2999 88 88 68.2999 88 44C88 19.7001 68.2999 0 44 0Z" fill="white"/>
</svg>
