<svg width="190" height="190" viewBox="0 0 190 190" fill="none" xmlns="http://www.w3.org/2000/svg">
<path d="M95 10.0199C106.476 10.0199 117.611 12.2697 128.085 16.6936C138.199 20.9662 147.293 27.1105 155.1 34.8995C162.908 42.6886 169.015 51.801 173.306 61.9154C177.73 72.3891 179.98 83.5244 179.98 95C179.98 106.476 177.73 117.611 173.306 128.085C169.015 138.199 162.89 147.293 155.082 155.082C147.274 162.871 138.199 169.015 128.085 173.307C117.611 177.73 106.476 179.98 95 179.98C83.5243 179.98 72.389 177.73 61.9154 173.307C51.801 169.015 42.7074 162.89 34.9184 155.082C27.1293 147.274 20.985 138.199 16.6935 128.085C12.2696 117.611 10.0199 106.476 10.0199 95C10.0199 83.5244 12.2696 72.3891 16.6935 61.9154C20.9661 51.801 27.1104 42.7075 34.8995 34.8995C42.6885 27.0916 51.801 20.9851 61.9154 16.6936C72.389 12.2697 83.5243 10.0199 95 10.0199ZM95 5.4826C45.5621 5.4826 5.48254 45.5622 5.48254 95C5.48254 144.438 45.5621 184.517 95 184.517C144.438 184.517 184.517 144.438 184.517 95C184.517 45.5622 144.438 5.4826 95 5.4826Z" fill="white"/>
<path d="M88.8599 121C88.6507 121 88.4589 120.913 88.302 120.773L42.2223 74.7028C41.9259 74.4064 41.9259 73.9007 42.2223 73.5868L43.5822 72.2267C43.7217 72.0872 43.9309 72 44.1401 72C44.3493 72 44.5411 72.0872 44.698 72.2267L90.7777 118.315C91.0741 118.611 91.0741 119.117 90.7777 119.431L89.4178 120.791C89.2609 120.93 89.0691 121 88.8599 121Z" fill="white" stroke="white"/>
<path d="M44.4141 73.845L89.1887 119.505L88.5687 120.137L43.7941 74.4772L44.4141 73.845ZM44.4141 71C43.8802 71 43.3464 71.2107 42.9503 71.6147L41.607 72.9845C40.7977 73.8099 40.7977 75.1445 41.607 75.9699L87.1222 122.385C87.5182 122.789 88.0521 123 88.5859 123C89.1198 123 89.6536 122.789 90.0497 122.385L91.393 121.016C92.2024 120.19 92.2024 118.855 91.393 118.03L45.8778 71.6147C45.4818 71.2107 44.9479 71 44.4141 71Z" fill="white" stroke="white"/>
<path d="M89.7065 122.507C89.5175 122.507 89.2717 122.432 89.1393 122.243L87.7403 120.39C87.608 120.22 87.6269 119.993 87.6458 119.88C87.7025 119.634 87.8538 119.388 88.0617 119.218L150.714 71.803C150.904 71.6517 151.149 71.5761 151.376 71.5761C151.49 71.5761 151.754 71.595 151.924 71.803L153.323 73.6557C153.399 73.7691 153.437 73.8826 153.399 74.0149C153.342 74.3174 153.078 74.6388 152.662 74.9035L152.624 74.9224L89.8578 122.432L89.8199 122.47C89.801 122.507 89.7632 122.507 89.7065 122.507Z" fill="white"/>
<path d="M151.206 73.2209L151.698 73.8826L89.7821 120.73L89.2905 120.069L151.206 73.2209ZM151.376 70.1582C150.866 70.1582 150.317 70.3284 149.864 70.6876L87.2109 118.084C86.1711 118.878 85.8876 120.296 86.606 121.241L88.005 123.094C88.4209 123.642 89.1015 123.925 89.7065 123.925C90.1413 123.925 90.5383 123.793 90.7841 123.528L153.437 76.1134C154.893 75.1682 155.157 73.7502 154.458 72.805L153.059 70.9522C152.662 70.4229 152.038 70.1582 151.376 70.1582Z" fill="white"/>
</svg>
