<svg width="180" height="180" viewBox="0 0 180 180" fill="none" xmlns="http://www.w3.org/2000/svg">
<path d="M90 5.01992C101.476 5.01992 112.611 7.26967 123.085 11.6936C133.199 15.9662 142.293 22.1105 150.101 29.8995C157.908 37.6886 164.015 46.801 168.306 56.9154C172.73 67.3891 174.98 78.5244 174.98 90C174.98 101.476 172.73 112.611 168.306 123.085C164.015 133.199 157.89 142.293 150.082 150.082C142.274 157.871 133.199 164.015 123.085 168.307C112.611 172.73 101.476 174.98 90 174.98C78.5244 174.98 67.389 172.73 56.9154 168.307C46.801 164.015 37.7075 157.89 29.9184 150.082C22.1293 142.274 15.9851 133.199 11.6935 123.085C7.26964 112.611 5.01989 101.476 5.01989 90C5.01989 78.5244 7.26964 67.3891 11.6935 56.9154C15.9662 46.801 22.1104 37.7075 29.8995 29.8995C37.6885 22.0916 46.801 15.9851 56.9154 11.6936C67.389 7.26967 78.5244 5.01992 90 5.01992ZM90 0.482605C40.5622 0.482605 0.482574 40.5622 0.482574 90C0.482574 139.438 40.5622 179.517 90 179.517C139.438 179.517 179.517 139.438 179.517 90C179.517 40.5622 139.438 0.482605 90 0.482605Z" fill="white"/>
<path d="M83.86 116C83.6507 116 83.459 115.913 83.3021 115.773L37.2224 69.7028C36.926 69.4064 36.926 68.9007 37.2224 68.5868L38.5823 67.2267C38.7217 67.0872 38.9309 67 39.1402 67C39.3494 67 39.5412 67.0872 39.6981 67.2267L85.7778 113.315C86.0742 113.611 86.0742 114.117 85.7778 114.431L84.4179 115.791C84.261 115.93 84.0692 116 83.86 116Z" fill="white" stroke="white"/>
<path d="M39.4141 68.845L84.1887 114.505L83.5688 115.137L38.7942 69.4772L39.4141 68.845ZM39.4141 66C38.8803 66 38.3464 66.2107 37.9503 66.6147L36.6071 67.9845C35.7977 68.8099 35.7977 70.1445 36.6071 70.9699L82.1222 117.385C82.5183 117.789 83.0522 118 83.586 118C84.1199 118 84.6537 117.789 85.0498 117.385L86.393 116.016C87.2024 115.19 87.2024 113.855 86.393 113.03L40.8779 66.6147C40.4818 66.2107 39.948 66 39.4141 66Z" fill="white" stroke="white"/>
<path d="M84.7065 117.507C84.5174 117.507 84.2717 117.432 84.1393 117.243L82.7403 115.39C82.608 115.22 82.6269 114.993 82.6458 114.88C82.7025 114.634 82.8537 114.388 83.0617 114.218L145.714 66.803C145.903 66.6517 146.149 66.5761 146.376 66.5761C146.49 66.5761 146.754 66.595 146.924 66.803L148.323 68.6557C148.399 68.7691 148.437 68.8826 148.399 69.0149C148.342 69.3174 148.078 69.6388 147.662 69.9035L147.624 69.9224L84.8577 117.432L84.8199 117.47C84.801 117.507 84.7632 117.507 84.7065 117.507Z" fill="white"/>
<path d="M146.206 68.2209L146.697 68.8826L84.7821 115.73L84.2905 115.069L146.206 68.2209ZM146.376 65.1582C145.866 65.1582 145.317 65.3284 144.864 65.6876L82.2109 113.084C81.1711 113.878 80.8875 115.296 81.6059 116.241L83.005 118.094C83.4209 118.642 84.1015 118.925 84.7064 118.925C85.1413 118.925 85.5383 118.793 85.7841 118.528L148.437 71.1134C149.892 70.1682 150.157 68.7502 149.458 67.805L148.059 65.9522C147.662 65.4229 147.038 65.1582 146.376 65.1582Z" fill="white"/>
</svg>
