<svg width="81" height="81" viewBox="0 0 81 81" fill="none" xmlns="http://www.w3.org/2000/svg">
<path d="M40.5131 2.48397C45.6485 2.48397 50.6316 3.49075 55.3186 5.47046C59.8449 7.38249 63.9143 10.1321 67.4084 13.6177C70.9025 17.1034 73.6352 21.1813 75.5557 25.7075C77.5354 30.3946 78.5422 35.3777 78.5422 40.5131C78.5422 45.6485 77.5354 50.6316 75.5557 55.3186C73.6352 59.8449 70.8941 63.9143 67.4 67.4C63.9059 70.8856 59.8449 73.6352 55.3186 75.5557C50.6316 77.5354 45.6485 78.5422 40.5131 78.5422C35.3777 78.5422 30.3946 77.5354 25.7075 75.5557C21.1813 73.6352 17.1119 70.8941 13.6262 67.4C10.1406 63.9059 7.39095 59.8449 5.47046 55.3186C3.49075 50.6316 2.48397 45.6485 2.48397 40.5131C2.48397 35.3777 3.49075 30.3946 5.47046 25.7075C7.38249 21.1813 10.1321 17.1119 13.6177 13.6177C17.1034 10.1236 21.1813 7.39095 25.7075 5.47046C30.3946 3.49075 35.3777 2.48397 40.5131 2.48397ZM40.5131 0.453491C18.3894 0.453491 0.453491 18.3894 0.453491 40.5131C0.453491 62.6368 18.3894 80.5727 40.5131 80.5727C62.6368 80.5727 80.5727 62.6368 80.5727 40.5131C80.5727 18.3894 62.6368 0.453491 40.5131 0.453491Z" fill="white"/>
<path d="M37.7654 52.1481C37.6718 52.1481 37.5859 52.1091 37.5157 52.0467L16.8948 31.4299C16.7621 31.2972 16.7621 31.0709 16.8948 30.9305L17.5033 30.3218C17.5657 30.2594 17.6594 30.2203 17.753 30.2203C17.8466 30.2203 17.9324 30.2594 18.0027 30.3218L38.6236 50.9464C38.7563 51.0791 38.7563 51.3054 38.6236 51.4458L38.015 52.0545C37.9448 52.1169 37.859 52.1481 37.7654 52.1481Z" fill="white" stroke="white" stroke-width="0.447506"/>
<path d="M17.8756 31.046L37.9125 51.4792L37.6351 51.7621L17.5982 31.3289L17.8756 31.046ZM17.8756 29.7728C17.6367 29.7728 17.3978 29.8671 17.2205 30.0479L16.6194 30.6609C16.2572 31.0303 16.2572 31.6275 16.6194 31.9969L36.9877 52.7681C37.165 52.9488 37.4039 53.0431 37.6428 53.0431C37.8817 53.0431 38.1206 52.9488 38.2978 52.7681L38.8989 52.1551C39.2611 51.7857 39.2611 51.1884 38.8989 50.8191L18.5306 30.0479C18.3534 29.8671 18.1145 29.7728 17.8756 29.7728Z" fill="white" stroke="white" stroke-width="0.447506"/>
<path d="M38.1441 52.8228C38.0595 52.8228 37.9495 52.789 37.8903 52.7044L37.2642 51.8753C37.205 51.7991 37.2135 51.6976 37.2219 51.6469C37.2473 51.5369 37.315 51.4269 37.4081 51.3507L65.4455 30.1323C65.5301 30.0646 65.6401 30.0308 65.7416 30.0308C65.7924 30.0308 65.9108 30.0392 65.987 30.1323L66.6131 30.9614C66.6469 31.0122 66.6638 31.0629 66.6469 31.1221C66.6215 31.2575 66.5031 31.4013 66.3169 31.5198L66.3 31.5282L38.2118 52.789L38.1949 52.8059C38.1864 52.8228 38.1695 52.8228 38.1441 52.8228Z" fill="white"/>
<path d="M65.6656 30.7668L65.8855 31.0629L38.178 52.0276L37.958 51.7315L65.6656 30.7668ZM65.7417 29.3962C65.5133 29.3962 65.2679 29.4724 65.0649 29.6331L37.0274 50.8431C36.5621 51.1985 36.4352 51.833 36.7567 52.256L37.3827 53.0851C37.5689 53.3305 37.8734 53.4574 38.1442 53.4574C38.3388 53.4574 38.5164 53.3982 38.6264 53.2797L66.6639 32.0612C67.3153 31.6382 67.4338 31.0037 67.1207 30.5807L66.4947 29.7516C66.317 29.5147 66.0378 29.3962 65.7417 29.3962Z" fill="white"/>
</svg>
