<svg width="86" height="86" viewBox="0 0 86 86" fill="none" xmlns="http://www.w3.org/2000/svg">
<path d="M43.0918 2.68367C48.5468 2.68367 53.842 3.7528 58.8172 5.85739C63.6325 7.89463 67.9511 10.8074 71.6636 14.5199C75.3761 18.2324 78.2889 22.551 80.3261 27.3663C82.4307 32.3499 83.4998 37.6367 83.4998 43.0918C83.4998 48.5468 82.4307 53.842 80.3261 58.8172C78.2889 63.6325 75.3761 67.9511 71.6636 71.6636C67.9511 75.3761 63.6325 78.2889 58.8172 80.3261C53.8336 82.4307 48.5468 83.4998 43.0918 83.4998C37.6367 83.4998 32.3415 82.4307 27.3663 80.3261C22.551 78.2889 18.2324 75.3761 14.5199 71.6636C10.8074 67.9511 7.89463 63.6325 5.85739 58.8172C3.7528 53.842 2.68367 48.5468 2.68367 43.0918C2.68367 37.6367 3.7528 32.3415 5.85739 27.3663C7.89463 22.551 10.8074 18.2324 14.5199 14.5199C18.2324 10.8074 22.551 7.89463 27.3663 5.85739C32.3415 3.7528 37.6367 2.68367 43.0918 2.68367ZM43.0918 1C19.8487 1 1 19.8487 1 43.0918C1 66.3348 19.8487 85.1835 43.0918 85.1835C66.3348 85.1835 85.1835 66.3348 85.1835 43.0918C85.1835 19.8487 66.3348 1 43.0918 1Z" fill="white" stroke="white" stroke-width="1.0072"/>
<path d="M14.6882 59.6337L28.3512 43.8073" stroke="white" stroke-width="1.34293" stroke-miterlimit="10"/>
<path d="M35.389 49.5571L27.9724 43.9504" stroke="white" stroke-width="1.34293" stroke-miterlimit="10"/>
<path d="M40.8187 46.7622L35.1195 49.5655" stroke="white" stroke-width="1.34293" stroke-miterlimit="10"/>
<path d="M47.7892 51.9394L40.5494 46.7789" stroke="white" stroke-width="1.34293" stroke-miterlimit="10"/>
<path d="M55.1047 41.9384L47.6881 51.5269" stroke="white" stroke-width="1.34293" stroke-miterlimit="10"/>
<path d="M59.9622 46.4422L54.7175 42.0142" stroke="white" stroke-width="1.34293" stroke-miterlimit="10"/>
<path d="M71.5037 31.0199L59.9285 46.0382" stroke="white" stroke-width="1.34293" stroke-miterlimit="10"/>
<path d="M14.6882 59.8189V19.5624" stroke="white" stroke-width="1.34293" stroke-miterlimit="10"/>
<path d="M14.5536 59.7264H75.8392" stroke="white" stroke-width="1.34293" stroke-miterlimit="10"/>
</svg>
